<svg version="1.2" xmlns="http://www.w3.org/2000/svg" viewBox="0 0 1394 1568" width="1394" height="1568"><defs><linearGradient id="P" gradientUnits="userSpaceOnUse"/><linearGradient id="g1" x1="2453.6" y1="961.8" x2="507.1" y2="1211.9" href="#P"><stop stop-color="#faf9fc"/><stop offset="1" stop-color="#c9f0f8"/></linearGradient><linearGradient id="g2" x1="-524.4" y1="481.9" x2="231.3" y2="165.4" href="#P"><stop stop-color="#faf9fc"/><stop offset="1" stop-color="#c9f0f8"/></linearGradient><linearGradient id="g3" x1="-67.1" y1="548.2" x2="1678.1" y2="548.2" href="#P"><stop offset="0" stop-color="#ffd174"/><stop offset="1" stop-color="#ffc84e"/></linearGradient><linearGradient id="g4" x1="1091.1" y1="550.9" x2="1678.1" y2="550.9" href="#P"><stop stop-color="#f4a88f"/><stop offset="1" stop-color="#fff"/></linearGradient><linearGradient id="g5" x1="1091.1" y1="551.1" x2="1678.1" y2="551.1" href="#P"><stop stop-color="#f0bbc0"/><stop offset="1" stop-color="#fff"/></linearGradient><linearGradient id="g6" x1="664.8" y1="551" x2="1446.3" y2="551" href="#P"><stop stop-color="#0c0c0c"/><stop offset="1" stop-color="#ffc735"/></linearGradient><linearGradient id="g7" x1="-24.2" y1="761" x2="614.3" y2="761" href="#P"><stop stop-color="#f0bbc0"/><stop offset="1" stop-color="#fff"/></linearGradient><linearGradient id="g8" x1="-24.2" y1="760.8" x2="302.3" y2="760.8" href="#P"><stop stop-color="#f0bbc0"/><stop offset="1" stop-color="#fff"/></linearGradient><linearGradient id="g9" x1="-67.1" y1="1032.8" x2="1678.1" y2="1032.8" href="#P"><stop stop-color="#ffb540"/><stop offset="1" stop-color="#ff8343"/></linearGradient><linearGradient id="g10" x1="339.9" y1="1037.9" x2="1438.1" y2="1037.9" href="#P"><stop stop-color="#f4a88f"/><stop offset="1" stop-color="#fff"/></linearGradient><linearGradient id="g11" x1="329.7" y1="1037.9" x2="1226.1" y2="1037.9" href="#P"><stop stop-color="#f4a88f"/><stop offset="1" stop-color="#fff"/></linearGradient><linearGradient id="g12" x1="-67.1" y1="1032.2" x2="808.3" y2="1032.2" href="#P"><stop stop-color="#0c0c0c"/><stop offset="1" stop-color="#ffc735"/></linearGradient><linearGradient id="g13" x1="-67.1" y1="1307.7" x2="227.7" y2="1307.7" href="#P"><stop stop-color="#f4a88f"/><stop offset="1" stop-color="#fff"/></linearGradient><linearGradient id="g14" x1="-67.1" y1="1307.4" x2="395.7" y2="1307.4" href="#P"><stop stop-color="#0c0c0c"/><stop offset="1" stop-color="#ff915f"/></linearGradient><linearGradient id="g15" x1="-67.1" y1="1195.1" x2="1678.1" y2="1195.1" href="#P"><stop stop-color="#ffb540"/><stop offset="1" stop-color="#ffcf4f"/></linearGradient><linearGradient id="g16" x1="862.3" y1="1200.2" x2="1603.9" y2="1200.2" href="#P"><stop stop-color="#f0bbc0"/><stop offset="1" stop-color="#fff"/></linearGradient><linearGradient id="g17" x1="861.5" y1="1200.2" x2="1452" y2="1200.2" href="#P"><stop stop-color="#f0bbc0"/><stop offset="1" stop-color="#fff"/></linearGradient><linearGradient id="g18" x1="708.4" y1="1200.2" x2="1086.1" y2="1200.2" href="#P"><stop stop-color="#0c0c0c"/><stop offset="1" stop-color="#ffc735"/></linearGradient><radialGradient id="g19" cx="976.2" cy="324.3" r="359.5" href="#P"><stop offset=".2" stop-color="#fffceb"/><stop offset=".5" stop-color="#ff571d"/><stop offset="1" stop-color="#0c0c0c"/></radialGradient></defs><style>.a{fill:url(#g1)}.b{mix-blend-mode:color-dodge;fill:url(#g2)}.c{fill:#fffafb}.d{fill:#f7eded}.e{fill:#fcf2f2}.f{fill:#cc8621}.g{fill:#9e6212}.h{fill:#aa6913}.i{fill:#c47f1a}.j{fill:#ea9c36}.k{fill:#e29b25}.l{fill:#ffb850}.m{fill:#ffb03e}.n{fill:#ea982d}.o{fill:#ffc271}.p{fill:url(#g3)}.q{mix-blend-mode:multiply;fill:url(#g4)}.r{mix-blend-mode:multiply;fill:url(#g5)}.s{opacity:.5;mix-blend-mode:screen;fill:url(#g6)}.t{mix-blend-mode:multiply;fill:url(#g7)}.u{opacity:.5;mix-blend-mode:multiply;fill:url(#g8)}.v{fill:url(#g9)}.w{mix-blend-mode:multiply;fill:url(#g10)}.x{mix-blend-mode:multiply;fill:url(#g11)}.y{opacity:.5;mix-blend-mode:screen;fill:url(#g12)}.z{opacity:.5;mix-blend-mode:soft-light;fill:#ffe095}.A{mix-blend-mode:multiply;fill:url(#g13)}.B{opacity:.5;mix-blend-mode:screen;fill:url(#g14)}.C{fill:url(#g15)}.D{mix-blend-mode:multiply;fill:url(#g16)}.E{mix-blend-mode:multiply;fill:url(#g17)}.F{opacity:.5;mix-blend-mode:screen;fill:url(#g18)}.G{mix-blend-mode:screen;fill:url(#g19)}</style><path class="a" d="m1674.3-66.9v1124.8h-1834.2v-1124.8z"/><path class="b" d="m1673.5 1060.6l-1833 20.1-0.2-327.9c142.5 47.2 464.3 151.3 571.8 164.9 177.8 22.4 504.9 24.7 503.4 0-1.5-24.7-159.5 17.2-496.5-74.2-282.3-76.5-511.8-310.8-578.8-384.8l-0.1-125.1c0 0 225.1 324.2 658.9 384.9 433.7 60.6 1174.4-504.1 1174.4-504.1l-0.2 280q-405.9 203.7-817.8 298.2-91.9 21.1-184.1 36.7 95.9 4.8 191.8 3 405.4-7.6 810.2-133.5z"/><path class="c" d="m911.5 611.9c0 10.3-36.5 18.6-81.4 18.6-45 0-81.4-8.3-81.4-18.6 0-10.2 36.4-18.5 81.4-18.5 44.9 0 81.4 8.3 81.4 18.5z"/><path class="c" d="m1498.9 794c-21.2 24.4-638.5 20.9-255.6 30 172.1 4.2-256.4 56.2-252.3-30 1.7-36 113.7-65.4 254-65.4 140.2 0 269.3 47.6 253.9 65.4z"/><path class="c" d="m1266.8 730.4c-416.2 33.7 48.7-23.2-127.6-41.2-48.9-4.9-81.1 24.3-81.1 24.3 0 0 39.7-46.2 88.6-48 106.5-4 133.1 63.9 120.1 64.9z"/><path class="c" d="m1177.7 618.1c0 0 24-16.5 53.7-16.5 29.8 0 62.1 7.5 62.1 16.5 0 8.9-33.3-0.8-63-0.8-29.8 0-42.2 0.8-52.8 0.8-4.4 0 0 0 0 0z"/><path class="c" d="m693.7 538.5c-49.6 6.3-107.1 6.2-165.4 1-103.8-9.4-210.4-35-281.4-69.4q0 0-0.1 0c-44.5-21.6-74.9-46.6-81.8-73.2-24.2-92.8 118.4-140 104.8-170.7-9.7-21.9-197.1-38.1-303.6-45.6-42.6-3-72.2-4.6-72.2-4.6 0 0 536-65.9 534.6 24-1.5 89.8-140.8 108.6-116.6 159.5 12.6 26.6 169.2 67.6 288.2 104.1 108.5 33.4 185.7 63.1 93.5 74.9z"/><path class="d" d="m167.5 376c1.2 49.7 77 92.7 79.3 94.1-44.5-21.6-74.9-46.6-81.8-73.2-24.2-92.8 118.4-140 104.8-170.7-9.7-21.9-197.1-38.1-303.6-45.6 132-3.8 352.2-5.6 351.7 25.4-0.8 44.1-152.6 75.8-150.4 170z"/><path class="e" d="m693.7 538.5c-49.6 6.3-107.1 6.2-165.4 1 2.6-0.1 196-10 179.3-36-16.9-26.2-139-33.2-139-33.2l31.6-6.7c108.5 33.4 185.7 63.1 93.5 74.9z"/><path class="e" d="m586.7 386c74.1 15.7 100.5 87.1 41.8 101.1-58.8 14-227.8-91-221.5-112 6.3-21 133.8 1.2 179.7 10.9z"/><path class="c" d="m606.4 397.8c52.8 11.2 71.6 62 29.8 72-41.9 9.9-162.1-64.8-157.6-79.7 4.5-15 95.2 0.8 127.8 7.7z"/><path class="c" d="m17.6 105.8c0 0 537.5-36.7 537.8 47.2 0.4 83.9-200.1 171.5-200.1 171.5 0 0 179.6-92.9 179.2-152.8-0.3-59.9-516.9-65.9-516.9-65.9z"/><path class="c" d="m353 63.1c24.3 1.5 78.5 22.5 78.5 22.5l-163.5-10.5c0 0 60.9-13.5 85-12z"/><path class="d" d="m188.4 324.5c0 18.7 54.7 15 54.7 15 0 0-31.6 9.7-69.7 8.2-38.1-1.5-48.8-33.7-7-56.9 41.8-23.2 132.4 0 132.4 0 0 0-110.4 15-110.4 33.7z"/><path class="c" d="m473.7 529c-1.8 22.8-87.9 26.1-157.1 22.5q-0.1 0-1.1 0-0.2-0.1-0.5-0.1-0.6 0-1.4-0.1c-45.3-2.4-82.6-7.9-82.6-12.6 0-1.8 2.6-3.2 7.1-4.3 8.6-2 24-3.1 40.5-4 32.6-1.9 69.9-3.5 69.7-11.9-0.4-15-266.6-21-266.6-33 0-1.1 1.8-2 5-2.9 31.2-8 199.3-3.1 199.3-3.1 0 0 190.6 11.3 187.7 49.5z"/><path class="d" d="m313.6 551.3c-45.3-2.4-82.6-7.9-82.6-12.6 0-1.8 2.6-3.2 7.1-4.3-0.5 11.7 61.1 16.1 75.5 16.9z"/><path class="d" d="m315 551.4q0.2 0 0.5 0.1-0.2-0.1-0.5-0.1z"/><path class="d" d="m361.8 515.5c-0.2 18-47.2 15.9-83.2 14.9 32.6-1.9 69.9-3.5 69.7-11.9-0.4-15-266.6-21-266.6-33 0-1.1 1.8-2 5-2.9q-0.2 0.4-0.2 0.7c-0.3 13.6 275.7 3 275.3 32.2z"/><path class="d" d="m338.8 474.3c0 0-39.3-2.3-40-18-0.7-15.7 67.8-12.7 67.8-12.7 0 0-42.1-2.3-39.9 14.2 2.2 16.5 72.5 24.7 72.5 24.7l-134.9-4.5z"/><path class="f" d="m278.6 993.2l209.9-469.4 388.1 469.4z"/><path class="g" d="m132.6 993.2l355.9-469.4-209.9 469.4z"/><path class="h" d="m526.5 690.4h-50.9v-9.5h50.9z"/><path class="i" d="m823 959.1h-50.9v-9.5h50.9z"/><path class="i" d="m362.2 973.5h-50.9v-9.6h50.9z"/><path class="h" d="m550.9 599.2h-27.5v-9.5h19.6z"/><path class="h" d="m501.1 763.3h-78.6v-9.6h78.6z"/><path class="h" d="m652.5 954.4h-78.6v-9.6h78.6z"/><path class="h" d="m736 903.5h-122.8v-9.6h122.8z"/><path class="h" d="m585.4 903.5h-15.6v-9.6h15.6z"/><path class="h" d="m438.1 908.2h-15.6v-9.5h15.6z"/><path class="j" d="m554.3 847.3h-78.7v-9.5h78.7z"/><path class="j" d="m461.8 938.5h-113v-9.6h113z"/><path class="j" d="m603.5 847.3h-16.1v-9.5h16.1z"/><path class="j" d="m496.3 634.7h-16.1v-9.6h16.1z"/><path class="h" d="m690.5 768.1h-48.5v-9.6h40.6z"/><path class="h" d="m362.5 805.7l4.2-9.5h44.3v9.5z"/><path class="j" d="m620.9 719h-50.9v-9.5h50.9z"/><path class="j" d="m554.6 719h-11.6v-9.5h11.6z"/><path class="h" d="m532.4 781.6h-11.7v-9.6h11.7z"/><path class="k" d="m729.5 993.2l142.5-318.6 263.4 318.6z"/><path class="i" d="m630.5 993.2l241.5-318.6-142.5 318.6z"/><path class="i" d="m897.8 787.7h-34.5v-6.5h34.5z"/><path class="i" d="m1099.1 970.1h-34.6v-6.5h34.6z"/><path class="i" d="m786.3 979.8h-34.6v-6.5h34.6z"/><path class="i" d="m914.3 725.8h-18.6v-6.5h13.3z"/><path class="i" d="m880.6 837.1h-53.4v-6.4h53.4z"/><path class="i" d="m983.3 966.8h-53.4v-6.4h53.4z"/><path class="i" d="m1040 932.3h-83.4v-6.5h83.4z"/><path class="i" d="m937.8 932.3h-10.6v-6.5h10.6z"/><path class="i" d="m837.8 935.5h-10.6v-6.4h10.6z"/><path class="l" d="m916.6 894.2h-53.3v-6.5h53.3z"/><path class="l" d="m853.9 956h-76.7v-6.4h76.7z"/><path class="l" d="m950.1 894.2h-10.9v-6.5h10.9z"/><path class="l" d="m877.3 749.9h-10.9v-6.5h10.9z"/><path class="i" d="m1009.1 840.4h-32.9v-6.5h27.5z"/><path class="i" d="m786.5 865.9l2.9-6.4h30v6.4z"/><path class="l" d="m961.9 807.1h-34.6v-6.5h34.6z"/><path class="l" d="m916.9 807.1h-7.9v-6.5h7.9z"/><path class="i" d="m901.8 849.6h-7.9v-6.5h7.9z"/><path class="m" d="m191.5 993.2l111.3-248.8 205.7 248.8z"/><path class="i" d="m114.1 993.2l188.7-248.8-111.3 248.8z"/><path class="n" d="m322.9 832.7h-27v-5.1h27z"/><path class="n" d="m480.1 975.1h-27v-5h27z"/><path class="n" d="m235.8 982.7h-27v-5h27z"/><path class="n" d="m335.8 784.3h-14.6v-5h10.4z"/><path class="n" d="m309.4 871.3h-41.7v-5h41.7z"/><path class="n" d="m389.7 972.6h-41.7v-5h41.7z"/><path class="n" d="m433.9 945.6h-65.1v-5h65.1z"/><path class="n" d="m354.1 945.6h-8.2v-5h8.2z"/><path class="n" d="m276 948.2h-8.3v-5.1h8.3z"/><path class="o" d="m337.6 915.9h-41.7v-5.1h41.7z"/><path class="o" d="m288.6 964.2h-59.9v-5.1h59.9z"/><path class="o" d="m363.7 915.9h-8.5v-5.1h8.5z"/><path class="o" d="m306.9 803.1h-8.5v-5h8.5z"/><path class="n" d="m409.8 873.8h-25.7v-5h21.5z"/><path class="n" d="m235.9 893.8l2.3-5.1h23.4v5.1z"/><path class="o" d="m372.9 847.9h-26.9v-5.1h26.9z"/><path class="o" d="m337.8 847.9h-6.2v-5.1h6.2z"/><path class="n" d="m326 881h-6.2v-5h6.2z"/><path class="p" d="m-67.1 692.1c0 0 334.9 302.5 687.2 287.9 352.3-14.7 592.7-468.4 765.8-425.1l15.7 48.7c0 0 136.9 114.5 276.5 123.6v1022.9h-1745.2z"/><path class="q" d="m1678.1 727.2v793.8c0 0-47.9 10.1-114.6 17.9-110 13.2-271.2 20.6-354.1-31.5-1.3-0.8-2.6-1.7-3.8-2.6q-3.1-2.2-6.2-4.4c-0.3-0.2-0.7-0.4-1-0.7-7-5.3-13.2-11.2-18.7-17.7-102.4-121.8-190.8-314.4-99.7-363.1 91.2-48.8 391.4-70.7 377.3-219.4-10.8-114.6-80.5-177-110.1-215.9-0.1-0.1-0.1-0.1-0.1-0.2-8.8-11.4-14-20.8-13.1-28.9 3.5-33 45.8-91.4 51.3-98.8 0.4-0.5 0.6-0.8 0.6-0.8l15.7 48.7q0 0 0.3 0.3 0.4 0.3 0.8 0.6c29.8 23.7 59.8 42.9 88.6 58.4 0.2 0.1 0.5 0.2 0.7 0.4 101.1 54.4 186.1 63.9 186.1 63.9z"/><path class="r" d="m1271.3 1170.1c-29.7 126.3 132.4 322.2 292.2 368.8 28.3 8.3 56.5 11.9 83.5 9.6 0 0-294.9 54.6-437.6-41.1-1.3-0.8-2.6-1.7-3.8-2.6q-3.1-2.2-6.2-4.4c-0.3-0.2-0.7-0.4-1-0.7-7-5.3-13.2-11.2-18.7-17.7-102.4-121.8-190.8-314.4-99.7-363.1 91.2-48.8 391.4-70.7 377.3-219.4-10.8-114.6-80.5-177-110.1-215.9-0.1-0.1-0.1-0.1-0.1-0.2-5.9-9.9-10.7-19.1-13.1-28.9-6-23.8 45.2-90.9 51.3-98.8 0.4-0.5 0.6-0.8 0.6-0.8l15.7 48.7q0 0 0.3 0.3 0.4 0.3 0.8 0.6c6.9 5 44.6 32.2 88.6 58.4 0.2 0.1 0.5 0.2 0.7 0.4 38.2 22.6 81.2 44.6 113.1 50.4 0 0-100.8-2.1-160-43.3-59.2-41.1-44.6 70.7 26.8 197.4 71.5 126.8 206.2 148.7 206.2 148.7v35.2c0 0-371.9-30.3-406.8 118.4z"/><path class="s" d="m1334 654.5c-0.6 47.5 136.3 125.6 123.3 264.4-13.2 141.2-397.2 116.1-415.3 244.5-5.3 37.1-7 164.8 106 287.2 84.7 91.8 253.6 111.3 253.6 111.3 0 0-98.7 46.9-281 16.8-182.2-30-455.8-128.1-455.8-128.1 176.6-70.4 346.3-287 394.4-330.9 48.1-43.9 308.6-178.7 293.9-195.8-14.8-17.1-337.2 111.6-337.2 111.6 146.1-63.9 342.6-291.2 314.6-341.5-28-50.4-112.7-32.5-112.7-32.5 85.6-72.2 168.1-106.6 168.1-106.6 0 0-51.6 66.8-51.9 99.6z"/><path class="t" d="m614.3 1278.9c0 0-164.4 52-361-32.5q-7-3.1-13.8-6.2c-186.5-86.8-262.9-263.2-265.1-377.2-1.4-74.8 51.1-98.2 51.1-98.2 69 53.4 140.5 93.8 207.8 124.1q0.3 0.1 0.6 0.3c0.3 0.1 0.7 0.3 1.1 0.5 0.3 0.1 0.6 0.3 0.8 0.4q0.4 0.1 0.7 0.3c0.1 0 0.2 0.1 0.3 0.1 0.1 0.1 0.3 0.1 0.4 0.2 154.3 68.8 285.5 85.3 312.4 88-20.9-1.1-98.6 2.2-64 118.2 39.7 133.5 128.7 182 128.7 182z"/><path class="u" d="m302.3 1199.8l-62.8 40.4c-186.5-86.8-262.9-263.2-265.1-377.2-1.4-74.8 51.1-98.2 51.1-98.2 69 53.4 140.5 93.8 207.8 124.1-24.9-10.6-150.5-68.4-186.4-84.4-39.6-17.7-21.4 198 73.6 292.4 85.5 85 181.8 102.9 181.8 102.9z"/><path class="v" d="m-67.1 1191.4c0 0 530.7-188.7 875.4-149.5 0 0 331.7 639.4 869.8 373.8v334.4h-1745.2z"/><path class="w" d="m1360 1476.8c0 0-304.6-82.9-300.8 71.7 5.2 210.2 378.9 201.6 378.9 201.6h-1042.4c0 0-124-280.6-79.9-389.9 49.1-121.9 301 0 429.7-102.4 58.5-46.6 62.8-215.9 62.8-215.9 182.6 298.8 312.3 376.5 551.7 434.9z"/><path class="x" d="m395.7 1750.1c-92.8-221-112.2-369.5-61.4-424.1 61.4-65.8 375.2 0 423.5-80.6 48.2-80.7 50.5-203.5 50.5-203.5l58.2 92.8c0 0-44.9 10-33.8 147.5 15.3 188.4 393.4 467.9 393.4 467.9h-21c-132.7-160.8-686.6-548.4-719.5-381-27.7 140.5 119.1 381 119.1 381z"/><path class="y" d="m-67.1 1194.2c497.5-214.2 875.4-149.5 875.4-149.5-5.9 113.9-31.4 269.5-223.9 241.2-247.1-36.4-651.5 28.3-651.5 28.3z"/><path class="z" d="m-67.1 1535.6c0 0 135.4 46.3 462.8 214.5h-462.8z"/><path class="A" d="m-67.1 1311.4c0 0 293.8 139.2 304 168.4 10.2 29.2-204.7 82.8-304 55.8z"/><path class="B" d="m306.9 1427.2c-1.9 111.7 88.8 322.9 88.8 322.9-203.9-95.1-323-172.2-462.8-214.5 141.8 31.7 301.8-22.7 297.1-64.1-4.7-41.5-237-131-237-131 173.6 4.7 363.3-29.1 363.3-29.1 0 0-47.4 7.4-49.4 115.8z"/><path class="C" d="m306.9 1427.2c-0.6 81.6 107.6 348.9 283.2 161.6 193.9-206.8 295-428.4 368.7-384.6l13.3 31.7c0 0 253.8 238.8 706 179.8v334.4h-1745.2z"/><path class="D" d="m972.1 1235.9c261.7 203.9 549.4 189.1 549.4 189.1 0 0-123.7 47.3-69.5 163.8 54.3 116.5 151.9 161.6 151.9 161.6l-742.4-0.3c0 0-0.7-58.5 51.1-107.2 51.9-48.8 188.5-80.5 173.6-168.3-15-87.8-119.8-197.3-125.5-220.3-5.6-23.1-1.9-50.1-1.9-50.1z"/><path class="E" d="m861.5 1750.1c21.7-170.6 218.3-156 224.7-249.9 6.3-93.9-119.8-221.7-125.5-245.9-5.6-24.3-1.9-50.1-1.9-50.1l13.3 31.7 9.8 7.5c0 0 1.4 19.3 27.3 61.9 25.9 42.7 116.4 166.5 192.6 207.6 94.9 51.1 250.2 75.9 250.2 75.9 0 0-119 30.2-226.1 17.5-47-5.5-166.9-24.8-170 51.2-3.5 88.2 334.6 91.4 334.6 91.4z"/><path class="F" d="m745.5 1400.7c0 0 179.4-128.3 194.2-145.3 14.7-17.1 19.1-51.2 19.1-51.2 0 0-6 41.4 9.2 65.8 15.3 24.4 118.2 153.2 118.2 230.2-0.1 78.3-167.8 93.9-201.1 157.3-33.4 63.4-37.1 92.9-37.1 92.9l-139.6-0.3c0 0 177.4-115.3 240.5-172.2 63.1-56.9 39.9-227.5 4.2-251.9-35.6-24.3-207.6 74.7-207.6 74.7z"/><path class="G" d="m976.2-14.6c194.8 0 352.7 151.7 352.7 338.9 0 187.2-157.9 338.9-352.7 338.9-194.9 0-352.8-151.7-352.8-338.9 0-187.2 157.9-338.9 352.8-338.9z"/></svg>