<svg version="1.2" xmlns="http://www.w3.org/2000/svg" viewBox="0 0 1394 982" width="1394" height="982"><defs><linearGradient id="P" gradientUnits="userSpaceOnUse"/><linearGradient id="g1" x1="2453.6" y1="961.8" x2="507.1" y2="1211.9" href="#P"><stop stop-color="#faf9fc"/><stop offset="1" stop-color="#c9f0f8"/></linearGradient><linearGradient id="g2" x1="-524.4" y1="481.9" x2="231.3" y2="165.4" href="#P"><stop stop-color="#faf9fc"/><stop offset="1" stop-color="#c9f0f8"/></linearGradient><linearGradient id="g3" x1="664.8" y1="551" x2="1446.3" y2="551" href="#P"><stop stop-color="#0c0c0c"/><stop offset="1" stop-color="#ffc735"/></linearGradient><linearGradient id="g4" x1="-67.1" y1="1032.8" x2="1678.1" y2="1032.8" href="#P"><stop stop-color="#ffb540"/><stop offset="1" stop-color="#ff8343"/></linearGradient><linearGradient id="g5" x1="339.9" y1="1037.9" x2="1438.1" y2="1037.9" href="#P"><stop stop-color="#f4a88f"/><stop offset="1" stop-color="#fff"/></linearGradient><linearGradient id="g6" x1="329.7" y1="1037.9" x2="1226.1" y2="1037.9" href="#P"><stop stop-color="#f4a88f"/><stop offset="1" stop-color="#fff"/></linearGradient><linearGradient id="g7" x1="-67.1" y1="1032.2" x2="808.3" y2="1032.2" href="#P"><stop stop-color="#0c0c0c"/><stop offset="1" stop-color="#ffc735"/></linearGradient><radialGradient id="g8" cx="976.2" cy="324.3" r="359.5" href="#P"><stop offset=".2" stop-color="#fffceb"/><stop offset=".5" stop-color="#ff571d"/><stop offset="1" stop-color="#0c0c0c"/></radialGradient></defs><style>.a{fill:url(#g1)}.b{mix-blend-mode:color-dodge;fill:url(#g2)}.c{fill:#fffafb}.d{fill:#f7eded}.e{fill:#fcf2f2}.f{opacity:.5;mix-blend-mode:screen;fill:url(#g3)}.g{fill:url(#g4)}.h{mix-blend-mode:multiply;fill:url(#g5)}.i{mix-blend-mode:multiply;fill:url(#g6)}.j{opacity:.5;mix-blend-mode:screen;fill:url(#g7)}.k{mix-blend-mode:screen;fill:url(#g8)}</style><path class="a" d="m1674.3-66.9v1124.8h-1834.2v-1124.8z"/><path class="b" d="m1673.5 1060.6l-1833 20.1-0.2-327.9c142.5 47.2 464.3 151.3 571.8 164.9 177.8 22.4 504.9 24.7 503.4 0-1.5-24.7-159.5 17.2-496.5-74.2-282.3-76.5-511.8-310.8-578.8-384.8l-0.1-125.1c0 0 225.1 324.2 658.9 384.9 433.7 60.6 1174.4-504.1 1174.4-504.1l-0.2 280q-405.9 203.7-817.8 298.2-91.9 21.1-184.1 36.7 95.9 4.8 191.8 3 405.4-7.6 810.2-133.5z"/><path class="c" d="m911.5 611.9c0 10.3-36.5 18.6-81.4 18.6-45 0-81.4-8.3-81.4-18.6 0-10.2 36.4-18.5 81.4-18.5 44.9 0 81.4 8.3 81.4 18.5z"/><path class="c" d="m1498.9 794c-21.2 24.4-638.5 20.9-255.6 30 172.1 4.2-256.4 56.2-252.3-30 1.7-36 113.7-65.4 254-65.4 140.2 0 269.3 47.6 253.9 65.4z"/><path class="c" d="m1266.8 730.4c-416.2 33.7 48.7-23.2-127.6-41.2-48.9-4.9-81.1 24.3-81.1 24.3 0 0 39.7-46.2 88.6-48 106.5-4 133.1 63.9 120.1 64.9z"/><path class="c" d="m1177.7 618.1c0 0 24-16.5 53.7-16.5 29.8 0 62.1 7.5 62.1 16.5 0 8.9-33.3-0.8-63-0.8-29.8 0-42.2 0.8-52.8 0.8-4.4 0 0 0 0 0z"/><path class="c" d="m693.7 538.5c-49.6 6.3-107.1 6.2-165.4 1-103.8-9.4-210.4-35-281.4-69.4q0 0-0.1 0c-44.5-21.6-74.9-46.6-81.8-73.2-24.2-92.8 118.4-140 104.8-170.7-9.7-21.9-197.1-38.1-303.6-45.6-42.6-3-72.2-4.6-72.2-4.6 0 0 536-65.9 534.6 24-1.5 89.8-140.8 108.6-116.6 159.5 12.6 26.6 169.2 67.6 288.2 104.1 108.5 33.4 185.7 63.1 93.5 74.9z"/><path class="d" d="m167.5 376c1.2 49.7 77 92.7 79.3 94.1-44.5-21.6-74.9-46.6-81.8-73.2-24.2-92.8 118.4-140 104.8-170.7-9.7-21.9-197.1-38.1-303.6-45.6 132-3.8 352.2-5.6 351.7 25.4-0.8 44.1-152.6 75.8-150.4 170z"/><path class="e" d="m693.7 538.5c-49.6 6.3-107.1 6.2-165.4 1 2.6-0.1 196-10 179.3-36-16.9-26.2-139-33.2-139-33.2l31.6-6.7c108.5 33.4 185.7 63.1 93.5 74.9z"/><path class="e" d="m586.7 386c74.1 15.7 100.5 87.1 41.8 101.1-58.8 14-227.8-91-221.5-112 6.3-21 133.8 1.2 179.7 10.9z"/><path class="c" d="m606.4 397.8c52.8 11.2 71.6 62 29.8 72-41.9 9.9-162.1-64.8-157.6-79.7 4.5-15 95.2 0.8 127.8 7.7z"/><path class="c" d="m17.6 105.8c0 0 537.5-36.7 537.8 47.2 0.4 83.9-200.1 171.5-200.1 171.5 0 0 179.6-92.9 179.2-152.8-0.3-59.9-516.9-65.9-516.9-65.9z"/><path class="c" d="m353 63.1c24.3 1.5 78.5 22.5 78.5 22.5l-163.5-10.5c0 0 60.9-13.5 85-12z"/><path class="d" d="m188.4 324.5c0 18.7 54.7 15 54.7 15 0 0-31.6 9.7-69.7 8.2-38.1-1.5-48.8-33.7-7-56.9 41.8-23.2 132.4 0 132.4 0 0 0-110.4 15-110.4 33.7z"/><path class="c" d="m473.7 529c-1.8 22.8-87.9 26.1-157.1 22.5q-0.1 0-1.1 0-0.2-0.1-0.5-0.1-0.6 0-1.4-0.1c-45.3-2.4-82.6-7.9-82.6-12.6 0-1.8 2.6-3.2 7.1-4.3 8.6-2 24-3.1 40.5-4 32.6-1.9 69.9-3.5 69.7-11.9-0.4-15-266.6-21-266.6-33 0-1.1 1.8-2 5-2.9 31.2-8 199.3-3.1 199.3-3.1 0 0 190.6 11.3 187.7 49.5z"/><path class="f" d="m1334 654.5c-0.6 47.5 136.3 125.6 123.3 264.4-13.2 141.2-397.2 116.1-415.3 244.5-5.3 37.1-7 164.8 106 287.2 84.7 91.8 253.6 111.3 253.6 111.3 0 0-98.7 46.9-281 16.8-182.2-30-455.8-128.1-455.8-128.1 176.6-70.4 346.3-287 394.4-330.9 48.1-43.9 308.6-178.7 293.9-195.8-14.8-17.1-337.2 111.6-337.2 111.6 146.1-63.9 342.6-291.2 314.6-341.5-28-50.4-112.7-32.5-112.7-32.5 85.6-72.2 168.1-106.6 168.1-106.6 0 0-51.6 66.8-51.9 99.6z"/><path class="g" d="m-67.1 1191.4c0 0 530.7-188.7 875.4-149.5 0 0 331.7 639.4 869.8 373.8v334.4h-1745.2z"/><path class="h" d="m1360 1476.8c0 0-304.6-82.9-300.8 71.7 5.2 210.2 378.9 201.6 378.9 201.6h-1042.4c0 0-124-280.6-79.9-389.9 49.1-121.9 301 0 429.7-102.4 58.5-46.6 62.8-215.9 62.8-215.9 182.6 298.8 312.3 376.5 551.7 434.9z"/><path class="i" d="m395.7 1750.1c-92.8-221-112.2-369.5-61.4-424.1 61.4-65.8 375.2 0 423.5-80.6 48.2-80.7 50.5-203.5 50.5-203.5l58.2 92.8c0 0-44.9 10-33.8 147.5 15.3 188.4 393.4 467.9 393.4 467.9h-21c-132.7-160.8-686.6-548.4-719.5-381-27.7 140.5 119.1 381 119.1 381z"/><path class="j" d="m-67.1 1194.2c497.5-214.2 875.4-149.5 875.4-149.5-5.9 113.9-31.4 269.5-223.9 241.2-247.1-36.4-651.5 28.3-651.5 28.3z"/><path class="k" d="m976.2-14.6c194.8 0 352.7 151.7 352.7 338.9 0 187.2-157.9 338.9-352.7 338.9-194.9 0-352.8-151.7-352.8-338.9 0-187.2 157.9-338.9 352.8-338.9z"/></svg>